# xmcd
#
# Track frame offsets:
#	150
#	8607
#	21532
#	39587
#	56600
#	66987
#	79400
#	86362
#	93840
#	99245
#	110267
#	121627
#	133612
#	151165
#	169517
#	180200
#	189102
#	207895
#	222634
#	236757
#	257110
#	283750
#	300677
#	316892
#
# Disc length: 4315 seconds
#
# Revision: 1
# Processed by: cddbd v1.4PL0 Copyright (c) Steve Scherf et al.
# Submitted via: audiograbber 1.81.02
#
DISCID=3810d918
DTITLE=TOCA DO VALE E BALANÇO DO FORRÓ - AO VIVO
DYEAR=2002
DGENRE=FORRÓ
TTITLE0=ABERTURA
TTITLE1=O ÚLTIMO DOS APAIXONADOS
TTITLE2=GALOPEIRA
TTITLE3=FAZ DE CONTA
TTITLE4=SERÁ QUE ME ESQUECEU
TTITLE5=BAGUAL BARBARIDADE
TTITLE6=VELHOTE ASSASSINADO
TTITLE7=MENSAGEM DO SOL
TTITLE8=FORRONEIRÃO
TTITLE9=BAILE DAS CALÇAS CURTAS
TTITLE10=TUDO DEMAIS É VENENO
TTITLE11=AQUILO BOM
TTITLE12=QUEM BRINCA COM FOGO PODE SE QUEIMAR
TTITLE13=MOMENTO DE FELICIDADE
TTITLE14=FOGO DO MEU CORAÇÃO
TTITLE15=NA CUMBUCA DA MARUCA
TTITLE16=CORAÇÃO ROEDOR
TTITLE17=LEVIANA (SHOW)
TTITLE18=LEVIANA
TTITLE19=TENTAÇÃO CIGANA
TTITLE20=MELÔ DA LOIRA E A MORENA
TTITLE21=QUE BOM TE VER DE NOVO
TTITLE22=MULHER FROUXA
TTITLE23=ENCERRAMENTO
EXTD=
EXTT0=
EXTT1=
EXTT2=
EXTT3=
EXTT4=
EXTT5=
EXTT6=
EXTT7=
EXTT8=
EXTT9=
EXTT10=
EXTT11=
EXTT12=
EXTT13=
EXTT14=
EXTT15=
EXTT16=
EXTT17=
EXTT18=
EXTT19=
EXTT20=
EXTT21=
EXTT22=
EXTT23=
PLAYORDER=
